<svg width="808" height="121" viewBox="0 0 808 121" fill="none" xmlns="http://www.w3.org/2000/svg">
<path d="M117.699 5.06175L94.2792 89.1833H74.4626L58.7294 29.2859L42.2755 89.1833L22.579 89.3038L0 5.06175H18.0151L32.7875 70.3825L49.8419 5.06175H68.5776L84.6712 70.0209L99.5637 5.06175H117.699Z" fill="#FAFAFA"/>
<path d="M124.354 55.5588C124.354 48.8098 125.675 42.824 128.318 37.6016C131.04 32.3792 134.683 28.3619 139.247 25.5498C143.891 22.7377 149.055 21.3317 154.74 21.3317C159.704 21.3317 164.028 22.336 167.711 24.3446C171.474 26.3533 174.476 28.8841 176.718 31.9373V22.4163H193.652V89.1833H176.718V79.4213C174.556 82.5548 171.554 85.166 167.711 87.255C163.947 89.2636 159.584 90.2679 154.62 90.2679C149.015 90.2679 143.891 88.8217 139.247 85.9293C134.683 83.0369 131.04 78.9794 128.318 73.757C125.675 68.4542 124.354 62.3881 124.354 55.5588ZM176.718 55.7998C176.718 51.7022 175.918 48.2072 174.316 45.3147C172.715 42.342 170.553 40.0923 167.831 38.5657C165.108 36.9588 162.186 36.1554 159.063 36.1554C155.941 36.1554 153.058 36.9187 150.416 38.4452C147.774 39.9718 145.612 42.2215 143.931 45.1942C142.329 48.0867 141.529 51.5415 141.529 55.5588C141.529 59.576 142.329 63.1112 143.931 66.1644C145.612 69.1371 147.774 71.427 150.416 73.0339C153.138 74.6408 156.021 75.4442 159.063 75.4442C162.186 75.4442 165.108 74.6809 167.831 73.1544C170.553 71.5475 172.715 69.2978 174.316 66.4054C175.918 63.4326 176.718 59.8974 176.718 55.7998Z" fill="#FAFAFA"/>
<path d="M273.728 22.4163L232.533 120.759H214.638L229.05 87.496L202.388 22.4163H221.244L238.418 69.0568L255.833 22.4163H273.728Z" fill="#FAFAFA"/>
<path d="M339.84 5.06175V18.6803H317.501V89.1833H300.687V18.6803H278.348V5.06175H339.84Z" fill="#FAFAFA"/>
<path d="M489.364 73.1544H455.976L450.452 89.1833H432.797L462.942 4.94123H482.519L512.664 89.1833H494.889L489.364 73.1544ZM484.8 59.6564L472.67 24.4651L460.54 59.6564H484.8Z" fill="#FAFAFA"/>
<path d="M519.608 55.5588C519.608 48.8098 520.929 42.824 523.572 37.6016C526.294 32.3792 529.977 28.3619 534.621 25.5498C539.265 22.7377 544.429 21.3317 550.114 21.3317C554.437 21.3317 558.561 22.2958 562.484 24.2241C566.407 26.072 569.53 28.5627 571.852 31.6962V0H588.906V89.1833H571.852V79.3008C569.77 82.595 566.848 85.2464 563.085 87.255C559.322 89.2636 554.958 90.2679 549.994 90.2679C544.389 90.2679 539.265 88.8217 534.621 85.9293C529.977 83.0369 526.294 78.9794 523.572 73.757C520.929 68.4542 519.608 62.3881 519.608 55.5588ZM571.972 55.7998C571.972 51.7022 571.171 48.2072 569.57 45.3147C567.969 42.342 565.807 40.0923 563.085 38.5657C560.362 36.9588 557.44 36.1554 554.317 36.1554C551.195 36.1554 548.312 36.9187 545.67 38.4452C543.028 39.9718 540.866 42.2215 539.185 45.1942C537.583 48.0867 536.783 51.5415 536.783 55.5588C536.783 59.576 537.583 63.1112 539.185 66.1644C540.866 69.1371 543.028 71.427 545.67 73.0339C548.392 74.6408 551.275 75.4442 554.317 75.4442C557.44 75.4442 560.362 74.6809 563.085 73.1544C565.807 71.5475 567.969 69.2978 569.57 66.4054C571.171 63.4326 571.972 59.8974 571.972 55.7998Z" fill="#FAFAFA"/>
<path d="M707.996 32.0578C710.158 29.0047 713.12 26.4738 716.883 24.4651C720.727 22.3762 725.09 21.3317 729.974 21.3317C735.659 21.3317 740.783 22.7377 745.347 25.5498C749.991 28.3619 753.634 32.3792 756.276 37.6016C758.999 42.7437 760.36 48.7294 760.36 55.5588C760.36 62.3881 758.999 68.4542 756.276 73.757C753.634 78.9794 749.991 83.0369 745.347 85.9293C740.783 88.8217 735.659 90.2679 729.974 90.2679C725.09 90.2679 720.767 89.2636 717.003 87.255C713.32 85.2464 710.318 82.7155 707.996 79.6624V121H691.182V22.4163H707.996V32.0578ZM743.185 55.5588C743.185 51.5415 742.345 48.0867 740.663 45.1942C739.062 42.2215 736.9 39.9718 734.178 38.4452C731.536 36.9187 728.653 36.1554 725.531 36.1554C722.488 36.1554 719.606 36.9588 716.883 38.5657C714.241 40.0923 712.079 42.342 710.398 45.3147C708.797 48.2875 707.996 51.7825 707.996 55.7998C707.996 59.8171 708.797 63.3121 710.398 66.2849C712.079 69.2576 714.241 71.5475 716.883 73.1544C719.606 74.6809 722.488 75.4442 725.531 75.4442C728.653 75.4442 731.536 74.6408 734.178 73.0339C736.9 71.427 739.062 69.1371 740.663 66.1644C742.345 63.1916 743.185 59.6564 743.185 55.5588Z" fill="#FAFAFA"/>
<path d="M792.155 36.2759V68.5747C792.155 70.8244 792.675 72.4715 793.716 73.5159C794.837 74.4801 796.678 74.9622 799.241 74.9622H807.047V89.1833H796.478C782.306 89.1833 775.22 82.2736 775.22 68.4542V36.2759H767.294V22.4163H775.22V5.90537H792.155V22.4163H807.047V36.2759H792.155Z" fill="#FAFAFA"/>
<path d="M381.588 40.0572C368.199 40.0572 349.217 64.0304 349.217 79.1631C349.217 85.9786 353.737 90.0503 361.312 90.0503C369.547 90.0503 374.984 85.1525 381.588 85.1525C388.249 85.1525 393.701 90.0503 401.863 90.0503C409.438 90.0503 413.958 85.9786 413.958 79.1631C413.958 64.0304 394.976 40.0572 381.588 40.0572ZM356.757 37.5946C355.003 30.828 349.602 26.4458 344.692 27.805C339.782 29.1642 337.225 35.7511 338.978 42.5178C340.732 49.2844 346.133 53.6666 351.043 52.3074C355.953 50.9483 358.51 44.3613 356.757 37.5946ZM371.04 33.5366C376.257 31.947 378.867 23.784 376.87 15.3048C374.874 6.82547 369.027 1.24225 363.811 2.83188C358.594 4.4215 355.985 12.5844 357.981 21.0637C359.977 29.543 365.826 35.1282 371.04 33.5366ZM418.482 27.8069C413.572 26.4477 408.172 30.83 406.417 37.5966C404.664 44.3632 407.221 50.9502 412.131 52.3094C417.04 53.6686 422.44 49.2864 424.196 42.5197C425.949 35.7531 423.391 29.1661 418.482 27.8069ZM392.135 33.5366C397.352 35.1262 403.198 29.543 405.195 21.0637C407.191 12.5844 404.581 4.42345 399.365 2.83188C394.148 1.2403 388.301 6.82547 386.305 15.3048C384.309 23.784 386.919 31.947 392.135 33.5366Z" fill="#95C0DE"/>
<path d="M676.209 51.5214C676.209 72.3215 659.406 89.1833 638.678 89.1833C617.95 89.1833 601.146 72.3215 601.146 51.5214C601.146 30.7213 617.95 13.8596 638.678 13.8596C659.406 13.8596 676.209 30.7213 676.209 51.5214Z" fill="#95C0DE"/>
<path fill-rule="evenodd" clip-rule="evenodd" d="M683.726 61.0903L653.69 55.2875L652.981 58.9857L683.017 64.7886L683.726 61.0903Z" fill="#95C0DE"/>
<path fill-rule="evenodd" clip-rule="evenodd" d="M681.019 40.2247L649.937 47.2081L650.757 50.8833L681.839 43.8999L681.019 40.2247Z" fill="#95C0DE"/>
<path fill-rule="evenodd" clip-rule="evenodd" d="M623.676 59.0548L593.64 64.8577L592.93 61.1594L607.948 58.258L622.966 55.3566L623.676 59.0548Z" fill="#95C0DE"/>
<path fill-rule="evenodd" clip-rule="evenodd" d="M624.722 50.9716L593.64 43.9882L594.46 40.313L625.542 47.2964L624.722 50.9716Z" fill="#95C0DE"/>
<path d="M667.558 8.38506C657.444 15.7427 650.409 18.011 650.409 18.011L667.12 28.0984C667.12 28.0984 677.673 1.02747 667.558 8.38506Z" fill="#95C0DE"/>
<path d="M610.908 9.95185C621.023 17.3094 628.058 19.5778 628.058 19.5778L611.346 29.6652C611.346 29.6652 600.794 2.59426 610.908 9.95185Z" fill="#95C0DE"/>
</svg>
