<svg width="261" height="40" viewBox="0 0 261 40" fill="none" xmlns="http://www.w3.org/2000/svg">
<path d="M38.064 1.63698L30.49 28.842H24.0813L18.9931 9.47108L13.672 28.842L7.30207 28.8809L0 1.63698H5.82612L10.6035 22.7618L16.1189 1.63698H22.1781L27.3827 22.6448L32.199 1.63698H38.064Z" fill="#414141"/>
<path d="M40.2163 17.9678C40.2163 15.7851 40.6435 13.8493 41.498 12.1604C42.3784 10.4715 43.5566 9.17227 45.0325 8.26284C46.5344 7.3534 48.2045 6.89869 50.043 6.89869C51.6484 6.89869 53.0467 7.22348 54.2378 7.87308C55.4548 8.52267 56.4258 9.34116 57.1509 10.3285V7.24947H62.6274V28.842H57.1509V25.6849C56.4517 26.6983 55.4807 27.5428 54.2378 28.2184C53.0208 28.868 51.6096 29.1928 50.0042 29.1928C48.1916 29.1928 46.5344 28.725 45.0325 27.7896C43.5566 26.8542 42.3784 25.542 41.498 23.8531C40.6435 22.1382 40.2163 20.1764 40.2163 17.9678ZM57.1509 18.0457C57.1509 16.7205 56.8919 15.5903 56.374 14.6548C55.8562 13.6934 55.157 12.9659 54.2766 12.4722C53.3963 11.9525 52.4511 11.6927 51.4413 11.6927C50.4314 11.6927 49.4992 11.9395 48.6447 12.4332C47.7902 12.9269 47.0911 13.6545 46.5473 14.6159C46.0295 15.5513 45.7705 16.6686 45.7705 17.9678C45.7705 19.267 46.0295 20.4102 46.5473 21.3976C47.0911 22.359 47.7902 23.0996 48.6447 23.6192C49.5251 24.1389 50.4573 24.3988 51.4413 24.3988C52.4511 24.3988 53.3963 24.1519 54.2766 23.6582C55.157 23.1385 55.8562 22.411 56.374 21.4756C56.8919 20.5142 57.1509 19.3709 57.1509 18.0457Z" fill="#414141"/>
<path d="M88.5239 7.24947L75.2015 39.0536H69.4142L74.0751 28.2963L65.4525 7.24947H71.5505L77.1047 22.333L82.7366 7.24947H88.5239Z" fill="#414141"/>
<path d="M109.905 1.63698V6.04122H102.68V28.842H97.2424V6.04122H90.018V1.63698H109.905Z" fill="#414141"/>
<path d="M158.261 23.6582H147.463L145.677 28.842H139.967L149.716 1.598H156.047L165.796 28.842H160.048L158.261 23.6582ZM156.785 19.2929L152.862 7.91206L148.939 19.2929H156.785Z" fill="#414141"/>
<path d="M168.042 17.9678C168.042 15.7851 168.469 13.8493 169.324 12.1604C170.204 10.4715 171.395 9.17227 172.897 8.26284C174.399 7.3534 176.069 6.89869 177.907 6.89869C179.306 6.89869 180.639 7.21049 181.908 7.8341C183.177 8.43173 184.187 9.23723 184.938 10.2506V0H190.453V28.842H184.938V25.646C184.264 26.7113 183.319 27.5688 182.102 28.2184C180.885 28.868 179.474 29.1928 177.869 29.1928C176.056 29.1928 174.399 28.725 172.897 27.7896C171.395 26.8542 170.204 25.542 169.324 23.8531C168.469 22.1382 168.042 20.1764 168.042 17.9678ZM184.976 18.0457C184.976 16.7205 184.718 15.5903 184.2 14.6548C183.682 13.6934 182.983 12.9659 182.102 12.4722C181.222 11.9525 180.277 11.6927 179.267 11.6927C178.257 11.6927 177.325 11.9395 176.47 12.4332C175.616 12.9269 174.917 13.6545 174.373 14.6159C173.855 15.5513 173.596 16.6686 173.596 17.9678C173.596 19.267 173.855 20.4102 174.373 21.3976C174.917 22.359 175.616 23.0996 176.47 23.6192C177.351 24.1389 178.283 24.3988 179.267 24.3988C180.277 24.3988 181.222 24.1519 182.102 23.6582C182.983 23.1385 183.682 22.411 184.2 21.4756C184.718 20.5142 184.976 19.3709 184.976 18.0457Z" fill="#414141"/>
<path d="M228.967 10.3675C229.666 9.38014 230.624 8.56165 231.841 7.91206C233.084 7.23648 234.495 6.89869 236.075 6.89869C237.913 6.89869 239.57 7.3534 241.046 8.26284C242.548 9.17227 243.726 10.4715 244.581 12.1604C245.461 13.8234 245.901 15.7591 245.901 17.9678C245.901 20.1764 245.461 22.1382 244.581 23.8531C243.726 25.542 242.548 26.8542 241.046 27.7896C239.57 28.725 237.913 29.1928 236.075 29.1928C234.495 29.1928 233.097 28.868 231.88 28.2184C230.689 27.5688 229.718 26.7503 228.967 25.7629V39.1315H223.529V7.24947H228.967V10.3675ZM240.347 17.9678C240.347 16.6686 240.075 15.5513 239.531 14.6159C239.013 13.6545 238.314 12.9269 237.434 12.4332C236.579 11.9395 235.647 11.6927 234.637 11.6927C233.653 11.6927 232.721 11.9525 231.841 12.4722C230.986 12.9659 230.287 13.6934 229.743 14.6548C229.226 15.6162 228.967 16.7465 228.967 18.0457C228.967 19.3449 229.226 20.4752 229.743 21.4366C230.287 22.398 230.986 23.1385 231.841 23.6582C232.721 24.1519 233.653 24.3988 234.637 24.3988C235.647 24.3988 236.579 24.1389 237.434 23.6192C238.314 23.0996 239.013 22.359 239.531 21.3976C240.075 20.4362 240.347 19.2929 240.347 17.9678Z" fill="#414141"/>
<path d="M256.184 11.7317V22.1771C256.184 22.9047 256.352 23.4374 256.689 23.7751C257.051 24.0869 257.647 24.2428 258.475 24.2428H261V28.842H257.582C252.999 28.842 250.707 26.6074 250.707 22.1382V11.7317H248.144V7.24947H250.707V1.9098H256.184V7.24947H261V11.7317H256.184Z" fill="#414141"/>
<path d="M123.406 12.9545C119.076 12.9545 112.937 20.7075 112.937 25.6014C112.937 27.8056 114.399 29.1224 116.849 29.1224C119.512 29.1224 121.27 27.5384 123.406 27.5384C125.56 27.5384 127.323 29.1224 129.963 29.1224C132.413 29.1224 133.875 27.8056 133.875 25.6014C133.875 20.7075 127.736 12.9545 123.406 12.9545ZM115.376 12.1581C114.808 9.96981 113.062 8.5526 111.474 8.99216C109.886 9.43172 109.059 11.562 109.626 13.7503C110.193 15.9386 111.94 17.3559 113.528 16.9163C115.115 16.4767 115.943 14.3465 115.376 12.1581ZM119.995 10.8458C121.682 10.3317 122.526 7.69179 121.88 4.94958C121.235 2.20736 119.344 0.401747 117.657 0.915833C115.97 1.42992 115.126 4.06982 115.771 6.81203C116.417 9.55425 118.308 11.3605 119.995 10.8458ZM135.337 8.99279C133.75 8.55323 132.003 9.97044 131.436 12.1588C130.869 14.3471 131.696 16.4774 133.284 16.9169C134.871 17.3565 136.618 15.9393 137.185 13.7509C137.752 11.5626 136.925 9.43236 135.337 8.99279ZM126.817 10.8458C128.504 11.3599 130.395 9.55425 131.04 6.81203C131.686 4.06982 130.842 1.43055 129.155 0.915833C127.468 0.401115 125.577 2.20736 124.932 4.94958C124.286 7.69179 125.13 10.3317 126.817 10.8458Z" fill="#3C6685"/>
<path d="M218.687 16.6621C218.687 23.3889 213.253 28.842 206.549 28.842C199.846 28.842 194.411 23.3889 194.411 16.6621C194.411 9.93532 199.846 4.4822 206.549 4.4822C213.253 4.4822 218.687 9.93532 218.687 16.6621Z" fill="#3C6685"/>
<path d="M215.046 16.6621C215.046 21.3708 211.242 25.188 206.549 25.188C201.857 25.188 198.053 21.3708 198.053 16.6621C198.053 11.9534 201.857 8.13616 206.549 8.13616C211.242 8.13616 215.046 11.9534 215.046 16.6621Z" fill="#3C6685"/>
<path fill-rule="evenodd" clip-rule="evenodd" d="M221.118 19.7567L211.404 17.88L211.175 19.0761L220.888 20.9527L221.118 19.7567Z" fill="#3C6685"/>
<path fill-rule="evenodd" clip-rule="evenodd" d="M220.242 13.0087L210.191 15.2672L210.456 16.4557L220.507 14.1973L220.242 13.0087Z" fill="#3C6685"/>
<path fill-rule="evenodd" clip-rule="evenodd" d="M201.697 19.0984L191.984 20.975L191.754 19.779L201.468 17.9024L201.697 19.0984Z" fill="#3C6685"/>
<path fill-rule="evenodd" clip-rule="evenodd" d="M202.036 16.4843L191.984 14.2258L192.249 13.0373L202.301 15.2957L202.036 16.4843Z" fill="#3C6685"/>
<path d="M215.889 2.71174C212.618 5.09119 210.343 5.82479 210.343 5.82479L215.747 9.08707C215.747 9.08707 219.16 0.332285 215.889 2.71174Z" fill="#3C6685"/>
<path d="M197.568 3.21844C200.84 5.59789 203.115 6.33149 203.115 6.33149L197.71 9.59377C197.71 9.59377 194.297 0.838988 197.568 3.21844Z" fill="#3C6685"/>
</svg>
