<svg width="33" height="33" viewBox="0 0 33 33" fill="none" xmlns="http://www.w3.org/2000/svg">
<path d="M16.5003 14.1432C11.3822 14.1432 4.12545 23.1856 4.12545 28.8935C4.12545 31.4642 5.85342 33 8.74927 33C11.8971 33 13.9757 31.1526 16.5003 31.1526C19.0468 31.1526 21.1312 33 24.2514 33C27.1472 33 28.8752 31.4642 28.8752 28.8935C28.8752 23.1856 21.6185 14.1432 16.5003 14.1432ZM7.00776 13.2143C6.33746 10.662 4.2724 9.00908 2.39555 9.52175C0.518692 10.0344 -0.459051 12.519 0.211254 15.0713C0.881559 17.6236 2.94662 19.2765 4.82347 18.7638C6.70033 18.2511 7.67807 15.7666 7.00776 13.2143ZM12.4682 11.6837C14.4623 11.0841 15.4601 8.0051 14.6969 4.80681C13.9338 1.60851 11.6986 -0.497419 9.70446 0.102169C7.7103 0.701758 6.71257 3.78073 7.47569 6.97903C8.23881 10.1773 10.4747 12.284 12.4682 11.6837ZM30.6044 9.52249C28.7276 9.00982 26.6632 10.6627 25.9922 13.215C25.3219 15.7673 26.2997 18.2519 28.1765 18.7646C30.0534 19.2772 32.1178 17.6243 32.7887 15.072C33.459 12.5197 32.4813 10.0352 30.6044 9.52249ZM20.5325 11.6837C22.5266 12.2832 24.7618 10.1773 25.525 6.97903C26.2881 3.78073 25.2903 0.702495 23.2962 0.102169C21.302 -0.498156 19.0668 1.60851 18.3037 4.80681C17.5406 8.0051 18.5383 11.0841 20.5325 11.6837Z" fill="#3C6685"/>
</svg>
